<svg width="28" height="26" viewBox="0 0 28 26" fill="none" xmlns="http://www.w3.org/2000/svg">
<path d="M22.8176 26H5.18241C3.5244 26 2.17548 24.7474 2.17548 23.2078V8.11908C2.17548 6.5795 3.5244 5.32703 5.18241 5.32703H22.8177C24.4757 5.32703 25.8246 6.5796 25.8246 8.11908V23.2078C25.8245 24.7474 24.4756 26 22.8176 26ZM5.18241 6.67979C4.32776 6.67979 3.63235 7.32547 3.63235 8.11903V23.2077C3.63235 24.0013 4.32765 24.6471 5.18241 24.6471H22.8177C23.6723 24.6471 24.3677 24.0014 24.3677 23.2077V8.11908C24.3677 7.32552 23.6724 6.67984 22.8177 6.67984H5.18241V6.67979Z" fill="#B8B8B8"/>
<path d="M25.0961 10.7215V8.11911C25.0961 6.95063 24.076 6.00336 22.8176 6.00336H5.18243C3.92407 6.00336 2.90393 6.95058 2.90393 8.11911V10.7215H25.0961Z" fill="#009B5B"/>
<path d="M25.0961 11.3979H2.90391C2.50158 11.3979 2.17548 11.095 2.17548 10.7215V8.11914C2.17548 6.57956 3.5244 5.32709 5.18241 5.32709H22.8177C24.4757 5.32709 25.8246 6.57966 25.8246 8.11914V10.7215C25.8245 11.095 25.4983 11.3979 25.0961 11.3979ZM3.63235 10.0451H24.3677V8.11914C24.3677 7.32558 23.6724 6.6799 22.8176 6.6799H5.18241C4.32776 6.6799 3.63235 7.32558 3.63235 8.11914V10.0451Z" fill="#B8B8B8"/>
<path d="M6.0601 16.8514C5.65777 16.8514 5.33167 16.5485 5.33167 16.175V14.2058C5.33167 13.6319 5.83452 13.165 6.45249 13.165H8.9738C9.37613 13.165 9.70224 13.4679 9.70224 13.8414C9.70224 14.2149 9.37613 14.5179 8.9738 14.5179H6.78849V16.175C6.78854 16.5485 6.46244 16.8514 6.0601 16.8514Z" fill="#B8B8B8"/>
<path d="M12.5918 16.8514C12.1894 16.8514 11.8633 16.5485 11.8633 16.175V14.2058C11.8633 13.6319 12.3662 13.165 12.9842 13.165H15.5055C15.9078 13.165 16.2339 13.4679 16.2339 13.8414C16.2339 14.2149 15.9078 14.5179 15.5055 14.5179H13.3202V16.175C13.3202 16.5485 12.9941 16.8514 12.5918 16.8514Z" fill="#B8B8B8"/>
<path d="M19.1236 16.8514C18.7212 16.8514 18.3951 16.5485 18.3951 16.175V14.2058C18.3951 13.6319 18.898 13.165 19.516 13.165H22.0373C22.4396 13.165 22.7657 13.4679 22.7657 13.8414C22.7657 14.2149 22.4396 14.5179 22.0373 14.5179H19.852V16.175C19.852 16.5485 19.5259 16.8514 19.1236 16.8514Z" fill="#B8B8B8"/>
<path d="M6.0601 23.1677C5.65777 23.1677 5.33167 22.8648 5.33167 22.4913V20.5221C5.33167 19.9482 5.83452 19.4813 6.45249 19.4813H8.9738C9.37613 19.4813 9.70224 19.7842 9.70224 20.1577C9.70224 20.5312 9.37613 20.8341 8.9738 20.8341H6.78849V22.4913C6.78854 22.8648 6.46244 23.1677 6.0601 23.1677Z" fill="#B8B8B8"/>
<path d="M12.5918 23.1677C12.1894 23.1677 11.8633 22.8648 11.8633 22.4913V20.5221C11.8633 19.9482 12.3662 19.4813 12.9842 19.4813H15.5055C15.9078 19.4813 16.2339 19.7842 16.2339 20.1577C16.2339 20.5312 15.9078 20.8341 15.5055 20.8341H13.3202V22.4913C13.3202 22.8648 12.9941 23.1677 12.5918 23.1677Z" fill="#B8B8B8"/>
<path d="M19.1236 23.1677C18.7212 23.1677 18.3951 22.8648 18.3951 22.4913V20.5221C18.3951 19.9482 18.898 19.4813 19.516 19.4813H22.0373C22.4396 19.4813 22.7657 19.7842 22.7657 20.1577C22.7657 20.5312 22.4396 20.8341 22.0373 20.8341H19.852V22.4913C19.852 22.8648 19.5259 23.1677 19.1236 23.1677Z" fill="#B8B8B8"/>
<path d="M14 6.2906C13.5976 6.2906 13.2715 5.98769 13.2715 5.6142V2.97621C13.2715 2.60271 13.5976 2.2998 14 2.2998C14.4023 2.2998 14.7284 2.60271 14.7284 2.97621V5.6142C14.7284 5.98769 14.4023 6.2906 14 6.2906Z" fill="#B8B8B8"/>
<path d="M13.9998 3.78786C14.9251 3.78786 15.6752 3.09133 15.6752 2.23213C15.6752 1.37292 14.9251 0.676392 13.9998 0.676392C13.0745 0.676392 12.3244 1.37292 12.3244 2.23213C12.3244 3.09133 13.0745 3.78786 13.9998 3.78786Z" fill="#009B5B"/>
<path d="M14 4.46428C12.6745 4.46428 11.5961 3.46293 11.5961 2.23214C11.5961 1.00136 12.6745 0 14 0C15.3254 0 16.4038 1.00136 16.4038 2.23214C16.4038 3.46293 15.3255 4.46428 14 4.46428ZM14 1.35281C13.4778 1.35281 13.053 1.74728 13.053 2.23214C13.053 2.717 13.4778 3.11147 14 3.11147C14.5221 3.11147 14.9469 2.717 14.9469 2.23214C14.9469 1.74728 14.5222 1.35281 14 1.35281Z" fill="#B8B8B8"/>
</svg>
