<svg width="78" height="49" viewBox="0 0 78 49" fill="none" xmlns="http://www.w3.org/2000/svg">
<rect width="78" height="49" fill="#282828"/>
<path d="M38.688 46.96C35.328 46.96 32.24 46.144 29.424 44.512C26.608 42.848 24.368 40.576 22.704 37.696C21.072 34.784 20.256 31.52 20.256 27.904C20.256 24.416 21.104 21.232 22.8 18.352C24.528 15.472 26.816 13.2 29.664 11.536C32.544 9.872 35.6 9.04 38.832 9.04C41.072 9.04 42.848 9.248 44.16 9.664C45.472 10.048 46.992 10.736 48.72 11.728V13.504C47.088 12.384 45.568 11.6 44.16 11.152C42.784 10.672 41.056 10.432 38.976 10.432C35.808 10.432 32.912 11.248 30.288 12.88C27.696 14.48 25.632 16.64 24.096 19.36C22.592 22.048 21.84 24.944 21.84 28.048C21.84 31.184 22.608 34.096 24.144 36.784C25.68 39.472 27.712 41.616 30.24 43.216C32.8 44.784 35.552 45.568 38.496 45.568C40.608 45.568 42.448 45.328 44.016 44.848C45.584 44.336 47.152 43.552 48.72 42.496V44.272C47.184 45.2 45.6 45.872 43.968 46.288C42.368 46.736 40.608 46.96 38.688 46.96ZM64.1085 46.768C61.9325 46.768 59.9645 46.24 58.2045 45.184C56.4445 44.096 55.0685 42.672 54.0765 40.912C53.0845 39.12 52.5885 37.184 52.5885 35.104C52.5885 33.056 53.0845 31.152 54.0765 29.392C55.1005 27.632 56.4765 26.24 58.2045 25.216C59.9645 24.16 61.9165 23.632 64.0605 23.632C66.1725 23.632 68.0925 24.16 69.8205 25.216C71.5805 26.24 72.9565 27.632 73.9485 29.392C74.9405 31.152 75.4365 33.056 75.4365 35.104C75.4365 37.248 74.9565 39.216 73.9965 41.008C73.0365 42.768 71.6925 44.176 69.9645 45.232C68.2685 46.256 66.3165 46.768 64.1085 46.768ZM64.1085 45.424C65.9325 45.424 67.5965 44.96 69.1005 44.032C70.6045 43.104 71.7725 41.872 72.6045 40.336C73.4685 38.768 73.9005 37.056 73.9005 35.2C73.9005 33.376 73.4685 31.68 72.6045 30.112C71.7405 28.544 70.5565 27.296 69.0525 26.368C67.5485 25.44 65.8845 24.976 64.0605 24.976C62.2365 24.976 60.5565 25.456 59.0205 26.416C57.5165 27.344 56.3165 28.592 55.4205 30.16C54.5565 31.728 54.1245 33.424 54.1245 35.248C54.1245 37.072 54.5565 38.768 55.4205 40.336C56.3165 41.872 57.5165 43.104 59.0205 44.032C60.5565 44.96 62.2525 45.424 64.1085 45.424Z" fill="white"/>
<path d="M1.65057 46V42.8977L8.89915 36.1861C9.51563 35.5895 10.0327 35.0526 10.4503 34.5753C10.8745 34.098 11.196 33.6307 11.4148 33.1733C11.6335 32.7093 11.7429 32.2088 11.7429 31.6719C11.7429 31.0753 11.607 30.5616 11.3352 30.1307C11.0634 29.6932 10.6922 29.3584 10.2216 29.1264C9.75095 28.8878 9.21733 28.7685 8.62074 28.7685C7.99763 28.7685 7.45407 28.8944 6.99006 29.1463C6.52604 29.3982 6.16809 29.7595 5.91619 30.2301C5.6643 30.7008 5.53835 31.2609 5.53835 31.9105H1.4517C1.4517 30.5781 1.75331 29.4214 2.35653 28.4403C2.95975 27.4593 3.80492 26.7003 4.89205 26.1634C5.97917 25.6264 7.23201 25.358 8.65057 25.358C10.1089 25.358 11.3783 25.6165 12.4588 26.1335C13.5459 26.6439 14.3911 27.3532 14.9943 28.2614C15.5975 29.1695 15.8991 30.2102 15.8991 31.3835C15.8991 32.1525 15.7467 32.9115 15.4418 33.6605C15.1435 34.4096 14.6098 35.2415 13.8409 36.1562C13.072 37.0644 11.9882 38.1548 10.5895 39.4276L7.61648 42.3409V42.4801H16.1676V46H1.65057Z" fill="#00B368"/>
</svg>
