<svg width="30" height="24" viewBox="0 0 30 24" fill="none" xmlns="http://www.w3.org/2000/svg">
<g filter="url(#filter0_i_1_77)">
<path d="M28.1641 3.39912H25.2506C24.6193 3.39912 23.9881 3.10777 23.5025 2.67074L21.1717 0.679824C20.6861 0.291353 20.0548 0 19.4235 0H13.7422C13.0138 0 12.334 0.291353 11.7998 0.8255L8.78915 3.302C8.54636 3.49624 8.54636 3.88471 8.74059 4.1275L9.66321 5.00156C10.2945 5.48715 11.12 5.58427 11.7512 5.14724L14.422 3.5448C14.7619 3.302 15.2475 3.39912 15.5388 3.69047L23.9395 11.8484C24.1338 12.0426 24.2794 12.334 24.2794 12.6253V14.8105C24.2794 15.3932 24.7165 16.0244 25.2506 16.0244H28.1641C28.6983 16.0244 29.1353 15.5874 29.1353 15.0047V4.3703C29.1353 3.78759 28.6983 3.39912 28.1641 3.39912ZM19.9091 12.1397L14.6648 7.04103L13.208 7.91509C12.4796 8.35212 11.6541 8.59492 10.8286 8.59492C9.80889 8.59492 8.74059 8.20645 7.91509 7.52662L6.0213 5.97274C5.58427 5.63283 5.34148 5.24436 5.29292 4.71021C5.1958 4.17606 4.80733 3.88471 4.32174 3.88471H0.971177C0.43703 3.88471 0 4.17606 0 4.75877V13.5965C0 14.1792 0.43703 14.5677 0.971177 14.5677H2.91353C3.05921 14.5677 3.25344 14.0335 3.44768 13.7907C4.17606 12.8195 5.24436 12.2854 6.40977 12.1397C7.57518 12.0426 8.69204 12.4311 9.61465 13.2566L15.6845 18.7923C16.2187 19.2779 16.6071 19.812 16.8499 20.4918C16.9956 20.8318 17.3841 20.9289 17.6269 20.6861L19.9091 18.4038C21.0745 17.2384 21.9486 14.5191 20.8803 13.2566L19.9091 12.1397ZM7.72086 15.7331C7.0896 15.1504 6.16698 15.2475 5.68139 15.9273C5.14724 16.6071 5.24436 17.5783 5.87562 18.161L11.9455 23.6482C12.2368 23.9395 12.6253 24.0366 13.0138 23.9881C13.4022 23.9395 13.7422 23.7453 13.985 23.4054C14.5191 22.7255 14.422 21.7544 13.7907 21.1717L7.72086 15.7331Z" fill="url(#paint0_linear_1_77)"/>
</g>
<defs>
<filter id="filter0_i_1_77" x="0" y="0" width="33.1353" height="28" filterUnits="userSpaceOnUse" color-interpolation-filters="sRGB">
<feFlood flood-opacity="0" result="BackgroundImageFix"/>
<feBlend mode="normal" in="SourceGraphic" in2="BackgroundImageFix" result="shape"/>
<feColorMatrix in="SourceAlpha" type="matrix" values="0 0 0 0 0 0 0 0 0 0 0 0 0 0 0 0 0 0 127 0" result="hardAlpha"/>
<feOffset dx="4" dy="4"/>
<feGaussianBlur stdDeviation="2.5"/>
<feComposite in2="hardAlpha" operator="arithmetic" k2="-1" k3="1"/>
<feColorMatrix type="matrix" values="0 0 0 0 0 0 0 0 0 0 0 0 0 0 0 0 0 0 0.24 0"/>
<feBlend mode="normal" in2="shape" result="effect1_innerShadow_1_77"/>
</filter>
<linearGradient id="paint0_linear_1_77" x1="-6.24" y1="-4.32" x2="28.8" y2="24" gradientUnits="userSpaceOnUse">
<stop stop-color="#009B5B"/>
<stop offset="1" stop-color="#B8B8B8"/>
</linearGradient>
</defs>
</svg>
