<svg width="28" height="28" viewBox="0 0 28 28" fill="none" xmlns="http://www.w3.org/2000/svg">
<path d="M14 14C16.1117 14 17.8235 12.1169 17.8235 9.79408C17.8235 7.47123 16.1117 5.5882 14 5.5882C11.8883 5.5882 10.1765 7.47123 10.1765 9.79408C10.1765 12.1169 11.8883 14 14 14Z" stroke="#009B5B" stroke-width="2"/>
<path d="M21.5 24C21.2962 20.0199 20.3091 17.8235 14 17.8235C7.691 17.8235 6.20389 20.0199 6 24" stroke="#009B5B" stroke-width="2" stroke-linecap="round"/>
<path d="M14 27C21.1797 27 27 21.1797 27 14C27 6.8203 21.1797 1 14 1C6.8203 1 1 6.8203 1 14C1 21.1797 6.8203 27 14 27Z" stroke="#B8B8B8" stroke-width="2"/>
</svg>
